<?xml version="1.0" encoding="utf-8"?>
<!-- Generator: Adobe Illustrator 24.2.3, SVG Export Plug-In . SVG Version: 6.00 Build 0)  -->
<svg version="1.1" id="Layer_1" xmlns="http://www.w3.org/2000/svg" xmlns:xlink="http://www.w3.org/1999/xlink" x="0px" y="0px"
	 viewBox="0 0 9479.1 5038.7" style="enable-background:new 0 0 9479.1 5038.7;" xml:space="preserve">
<style type="text/css">
	.st0{fill:#070908;}
	.st1{fill:#0E93CA;}
	.st2{fill:#FEFEFE;}
</style>
<path class="st0" d="M8665.4,1480.2c13.3-0.6,26.4-1.3,32.2-16.6c17-44.5,52.3-72.2,93.8-88.1c58.4-22.4,100.5-69.7,156.2-95.2
	c10.8-4.9,13.7-15.9,12.8-27.2c-4-45.2,13-82.9,40.6-117.1c23.7-29.3,51.9-54.3,77.9-81.4c10.2-10.6,19-9.1,30-1.7
	c15.6,10.4,32,19.6,48.1,29.1c11.5,6.8,20.2,5.4,29.3-6.1c28.4-36.1,55.7-72.4,69.6-117.2c4.1-13,10.5-26,18.5-37
	c21.6-30,40.3-61.2,51.9-96.5c6.6-0.1,13.4-8.1,19.7,1.4c7.6,11.5,4,22.5-2.3,32.2c-20.2,31.5-33.7,63.4-31.1,103
	c2.2,32.9-1.7,33.6,32,36.4c9.7,0.8,19.6,0.9,29.4,0.6c9.2-0.3,18.1-5.9,15.8-14.8c-8.5-33.5,16.6-60.4,16.2-92.3
	c-0.2-16,5.3-32.1,8.1-48.2c26.5,10,28,14.5,14.8,38.8c-2.3,4.3-11.2,7.5-5.7,13.7c6.4,7.3,21.8,7.4,19.1,22
	c-6.3,34.7-8.1,71-38.8,96.5c-32.1,26.7-62.5,55.3-94.3,82.3c-30.6,25.9-52.2,55.2-63.5,95.8c-11.2,40.3-34.6,77.3-53.7,115.2
	c-8.2,16.2-14.8,32.4-17.7,50.4c-4.2,26-14,50.4-25.4,74c-16.4,33.9-31.2,68.1-41.3,104.6c-11.7,42.6-45.1,71.2-72.3,103.6
	c-5.2,6.2-11.6,11.1-14,19.6c-30,105.7-74.2,206-119.1,305.6c-20.4,45.4-25.6,90.3-21.9,138.2c10,128.9,27.9,256.9,45.1,385
	c25.6,190.5,50.3,381,71.4,572.1c11.5,104.2,39.2,205.5,56.6,308.7c11.7,69.4,23.8,138.9,12.8,209.6c-4.8,30.7-16.3,57.7-40.1,79.2
	c-29.2,26.4-34.8,61.9-33.8,98.8c0.8,28-6.9,49.7-22.3,75.6c-22.6,37.9-52.6,74.3-58.1,122.5c-5.5,48.4-30,93.4-30,143.5
	c0,10.6-7.1,19.8-14,28.1c-9.9,11.9-19.9,23.9-29.6,36c-20.6,25.8-45.1,49.3-35.2,88.4c2.9,11.6-3.4,25.6-5.8,38.5
	c-4.2,22.3-7.2,43.3,16.7,58.7c10.9,7,17.2,19.1-2.5,26.6c-13.3,5.1-14.8,16.1-11.7,28.5c14.5,58.4,20.2,119.3,50.3,173.4
	c8.3,14.8,13.8,31.4,18.8,47.8c13.2,43,3.5,75.3-31.9,102c-20.5,15.5-45.7,7.8-68.9,8.8c-4.3,0.2-7-4.6-6.5-8.9
	c2.6-21-12.6-27.9-27.2-36c-50.5-27.9-85.4-68.4-97.5-125.7c-13.9-65.8-44.8-119.6-99.9-160.4c-34-25.2-57.2-60.5-68.6-102.2
	c-8.6-31.6-1.4-52.2,26.6-69.2c23.7-14.4,36.4-34.8,51-58.4c35.2-56.8,41.6-119.2,54.3-181.5c18-88.2,50.4-172.4,79.3-257.5
	c27.4-80.7,15.8-67.3-39.8-94.9c-117-58.2-233.3-118-353.1-170.3c-25.4-11.1-51.5-20.6-78.5-27.7c-40-10.6-76.8-5.2-108.5,21.6
	c-84.3,71-181.5,122.2-273.4,181.6c-58.4,37.7-117.9,43.4-182.6,24.6c-94.7-27.5-181.2-74-269.9-115.5
	c-20.7-9.7-40.5-21.6-61.8-29.8c-53.5-20.8-96.4-54.7-129.2-101.4c-12.6-18-26.8-22.5-48.3-16c-29.7,9-60.3,14.5-91.6,15.9
	c-28,1.2-45.9,19.5-61.7,40c-25.5,33-49.7,67-79.5,96.5c-51.2,50.5-101.4,40.6-130.1-26.1c-37.4-86.7-12.3-201,62-267.5
	c43.8-39.3,80.5-83.4,110.4-133.7c12.1-20.4,25.6-39.8,42.8-56.6c46.5-45.1,125-54.7,163.4,12.8c4.9,8.6,11.7,12.8,22.1,11.9
	c44.5-4,85.7,9.5,126.1,25.5c25,9.9,50.1,20.1,74.4,31.7c85.3,40.8,174.5,53,267.7,38.2c12.9-2.1,26-2.6,39.1-3.8
	c30.3-2.7,37.9-10.6,34.4-40.5c-4.4-37.3-0.1-73.5,11.6-108.8c5.4-16.2,11.6-32.1,26.9-42.7c12.3-8.5,11.7-22.8,12.3-35.7
	c4.9-108.7,9.3-217.4,14.3-326.1c9.8-212.5,19.9-425,29.6-637.4c2.1-46.8-19.8-68.9-67.3-69.6c-44.2-0.6-88.4-0.5-132.6-1.5
	c-21-0.5-41.4,2.8-59.1,13.4c-63.2,38-131.6,52.3-204.5,47.3c-30.7-2.1-59.3,5.2-88.7,13c-52.9,14-107,23.2-160.3,35.5
	c-36.1,8.3-69.9,22-99.9,44.8c-23.7,18.1-52.8,25.5-79.9,36.8c-5.9,2.5-12,2.3-16-2.3c-14.8-17.3-28.8-7.6-43.4,0.1
	c-91.8,48.4-172.7,111.9-251.2,178.9c-58.5,49.9-117.5,99.3-179.1,145.4c-22.5,16.8-24.9,16.4-36.9-9.5
	c-19.8-43-34.2-89.5-59.7-128.7c-32.3-49.7-13.1-101.9-19.3-152.6c-1.4-11,8.2-13.1,15.2-16.2c18.7-8.4,25.6-22.3,26.3-42.7
	c1.5-45.7,5.2-91.4,7.8-137.1c1.2-20.5,11.7-35.8,27.9-46.7c23.7-16,47.7-31.7,72.7-45.4c15.6-8.6,18.8-15.1,3.4-26.4
	c-4-3-9.6-6.6-7.6-13.7c5.2-2.9,10.2-1.4,13.4,2.4c19.5,23.7,39.4,16.8,59.7,1.5c2.6-1.9,5.6-3.3,8.5-4.8
	c33.9-17.6,34-17.6,56.3,13.9c0.9,1.3,1.8,2.7,2.8,4c42.1,56.1,52.4,57.7,107.3,17.1c52.4-38.7,52.4-38.7,25.3-99.5
	c-20.3-45.6-40.9-91-71.9-130.7c-27-34.5-60.4-58.9-103.3-70.7c-40.9-11.2-81.3-24.5-121.9-37c-14.1-4.3-24.9-24.5-42.9-3.8
	c-1.7-15.5,13.4-12.6,13.5-21.9c1.2-1.2,2.4-2.4,3.6-3.6c8.4,3.7,16,12.5,26.4,4.4c6.1-4.7,6.4-11.1,4.8-17.6
	c-2.1-8.6-3.4-18.6-16.7-14.9c-1.3-1.4-2.5-2.8-3.8-4.2c10.4-10.3,2.8-18.7-2.2-28.1c-11.7-21.8-18.1-43.8,0.7-65.6
	c12.5-14.5,28.3-13.5,38.8,2.6c7.2,11,13.1,32.7,26,26.6c14.4-6.8-1.7-24-4.1-36.6c-2.4-12.7-7.5-25-11.8-37.3
	c-3.6-10.3-1.2-17.9,9.4-21.5c14.1-4.8,11.3,7.5,13.3,14.2c3.7,12.4,5,25.7,12.4,36.9c3.5,5.3,8.4,8.1,14.6,6.1
	c6-2,8.6-6.5,8.6-13.2c0.1-22.3,4.6-44.6-0.7-66.9c-1.3-5.5-0.5-11.3,6.1-14.5c6.7-3.3,8.1,2.5,11.3,5.7
	c15.9,15.6,17.4-4.1,26.3-11.6c2.2,11,3.6,21.1,6.2,30.9c10.4,40.5,24.9,78.7,48.3,114.3c32.6,49.6,54.6,103.5,54.2,165.1
	c-0.2,29.7,8.4,58.8,28.6,85.8c-11.9-34,9.6-33.4,31.4-39.8c53.1-15.6,105.9-24.8,161.5-18.3c110.5,13,220.2,30.9,329.6,50.5
	c24.7,4.4,44.9,2.4,62-17.4c8.8-10.2,20.9-17,34.6-16c31.8,2.4,54.4-13.9,75.6-34.2c45.4-43.6,97.2-77,156.3-98.9
	c12.2-4.5,24.6-11.3,37.2-12c60.1-3.2,113.9-26.8,168.8-48.1c55.6-21.5,111.1-25.2,165.5,5.8c11.1,6.3,24.5,9.5,37.3,11.4
	c38.8,5.7,52.6-7.4,57-46c11.6-102,45.5-192.3,137.8-250.2c13.7-8.6,21.4-19.6,15.7-37c-1.9-5.8-1.7-13.4,0.3-19.2
	c38-110.8,99.9-186.8,246.6-157.7c132.1,26.2,213.9,148.1,189.7,276.7c-0.8,4,0.1,10.4-2.1,11.8c-27.5,16.5-16.1,45.5-21.8,68.5
	c-6.8,27.3-14,54-31.9,76.1c-10.1,12.5-7.5,21.9,2.1,31.9c1.6,4.8,2.7,10.1,9.3,10.6c0,0-0.2-0.4-0.2-0.4
	c16.2,28.1,31.6,56.6,48.8,84c11.5,18.3,15.3,37.1,13.2,58.2c-2.6,26.1-2.9,26.8-27.1,14.3c-120.6-62.1-243.5-120-351.6-203.7
	c-19.1-14.8-41.4-20.6-64.8-14.4c-53.9,14.4-101.1,43.6-153.6,69.6c13.2,3.7,21.8,0.9,30.3-0.9c47.6-10,92.5-3.2,135,20.5
	c11.4,6.4,23.4,11.8,34.8,18.2c77.6,43.7,155,87.9,232.9,131.1c29.5,16.4,57.5,34.5,80.8,59.1c24.3,25.5,53.4,42.5,87.3,52.2
	c31.4,8.9,62.4,19.4,93.7,28.8c7.4,2.2,17.4,8.7,22.2,0.2c4-7.1,1.7-17.5-5.1-25c-7.1-7.9-13.8-16.2-20.6-24.3
	c-7.2-8.6-10.5-18.3-7.5-29.6c7.7-29.6-0.4-56.5-13.5-82.7C8687.8,1531,8673.2,1507.2,8665.4,1480.2z M6602,1561.4
	c-32.8-46.2-83.2-68.6-129.6-96.5c-5.2-3.1-14.2-5.5-17.3,1.5c-3.2,7.2,3.3,13.4,9.3,17.9C6506.5,1516.3,6552.8,1541.1,6602,1561.4z
	 M6560,1315.5c5.9-12.7,3.6-22-4-30.4c-2.8-3.1-6.3-1.5-7.4,2C6544.8,1298.7,6550.7,1306.5,6560,1315.5z"/>
<path class="st0" d="M6308.1,565.1c39.2-29.8,37.9-75.6,45.4-117.5c3.7-20.8,3.2-42.3,4.6-63.5c0.3-4.5-1.4-11.5,4.7-11.9
	c8.1-0.5,7.4,7.1,7.2,12.7c-1,29.3-0.5,58.8-8.8,87.4c-1.6,5.5-3.8,10.5,4.1,17.1c16-23.7,23.1-49.8,28.9-76.4
	c1.4-6.4,2.2-12.9,3.7-19.2c1-4.1-1.1-11.2,6.8-9.7c6.5,1.2,5.5,7,4.9,11.8c-2.7,24.5-9.7,48-18.6,70.9c-1.7,4.3-3.4,8.6-5,13
	c1.8,1,3.6,2,5.4,3c13.3-15,17.8-35.1,26.3-53.1c4.8-10.2,3.8-32.8,13-29.1c15.2,6.1,0.4,22.3-2.4,33.7
	c-6.4,26.4-22.7,49.1-30.5,75.3c21.6-20.5,33.4-46.6,44.6-73.1c2.4-5.7,1.1-18.4,11.4-14.4c9.3,3.6,2.1,12.9-0.6,19.1
	c-7.2,16.4-15.3,32.4-22.5,48.8c-2.1,4.7-10.6,9.6-1.5,15.5c-0.6-6.7-4.5-4.8-7.9-3c-0.8,0.4-0.6,2.5-0.9,3.8c2.9-0.5,5.8-1,8.7-1.5
	c12.3-21.3,36.9-36,33.3-66.1c14.7,12.3,15.7,21.3,1.4,40.6c-27,36.8-56.9,71-91.3,101.8c48.9-15.5,86-47.3,119.2-91.4
	c6.2,32.2-26.3,39.6-33.8,62.7c19.8-0.9,26.5-18.7,40.3-25.7c9.5,9.7-0.3,15-4.8,21.5c-2.5,3.4-11.1,1.5-9.1,6.6
	c1.1,2.9,9.7,3.6,13.5-2.2c16.8,6.7,7,12.5-1.1,17c-11.8,6.5-24.2,11.9-39,19.1c15.1,5.8,24-2.8,34.1-3.6c4.8-0.4,11-9,14.2-0.2
	c3.2,8.8-5.2,10.1-11.5,12c-12.2,3.7-24.4,7.6-41.4,12.8c19.1,6.9,36.8,2.1,51.7,12.3c-15.1,14-32.8-2.7-47.2,5.1
	c9.5,6.8,22.3,5.7,33.4,10.4c-6.8,10.6-16.7,6.9-25.2,6.9c-47.6-0.1-94.7-6.2-141.2-16.3c-28.8-6.2-56.6-5.4-84.5,3.9
	c-70.5,23.7-141.7,45.2-214.1,62.1c-16.9,3.9-23.4,11.9-26.3,28.9c-8.8,52.4-20.3,104.3-29.5,156.7c-4,22.8-14.2,35.7-38,41.2
	c-41,9.4-44.4,16.1-44.1,57.3c0.3,39.5,14.2,79-0.7,118.7c-3.5,9.5,2.7,17.3,12.3,21.1c53.4,20.9,88.8,62.7,122.9,106
	c23.6,30.1,46.9,60.4,67.3,92.9c6.9,10.9,0.4,17.2-4.3,23.9c-21.1,30.2-42.7,59.9-64.4,89.6c-15.9,21.8-31.2,44.1-48.2,65
	c-36.9,45.4-66.2,92-71.5,154.1c-5.1,60.2-48.7,105.9-79.5,155.6c-10.4,16.8-31.1,20.1-49.9,23c-88.9,13.8-170.9,49.3-253.3,82.7
	c-34.4,13.9-33,50.9-34.4,79.8c-3,59.6,2,119.5,0.1,179.1c-2.9,95.1,13.7,189.3,11.6,284.4c-1,46.6-0.6,93.3-5.3,139.8
	c-2.6,26.1,2.7,50,16.1,72.8c33.4,57.1,65.3,115.2,99.2,172c33.3,56,58,115.2,72.3,178.7c5.3,23.4,7.5,46.7-9.4,67.8
	c-8.7,10.9-6.1,24.9,0.8,34.8c41,58.5,44.7,124.3,40.8,192.3c-1.2,21.5,6.6,42,16.4,61c19.5,37.7,16.5,71.4-13.1,103.5
	c-34.7,37.7-58.9,81.8-76,130.4c-11.7,33.3-40.8,54.6-64,79.7c-7.4,8.1-15.7,2.8-21.9-2.3c-13.9-11.4-28.1-22.7-40-36
	c-13.4-14.9-23.4-14-34.9,1.3c-5.9,7.8-13.9,13.9-20.3,21.3c-20.5,23.7-43.9,36.5-75.4,21.9c-2.2-1-5.2-2.6-7-1.9
	c-29.8,12.1-59.6,24.2-88.9,37.3c-6.7,3-1.5,10.1-0.5,15.4c16.7,91.1,28.7,182.6,23.6,275.6c-1,18.9-3.7,37.4-9.3,55.5
	c-18.4,59.4-83.8,79.2-131.2,38.8c-41.8-35.7-59.3-84.9-71.4-136.6c-9.3-39.6-5.6-79.9-5.6-119.8c0-40.1-7.4-77.7-25.9-113.5
	c-14.3-27.6-23.5-57.4-32.6-87.1c-3-9.8-5.3-19.1-19.2-16.2c-12.9,2.7-21.2,8.2-19.4,22.9c0.6,4.9,0,9.9,0.8,14.7
	c2.4,13.9-0.7,22.4-17.3,21.5c-18.2-1-26.4,9.1-22.6,26.1c5.3,23.3-15.8,36.8-19,56.8c-8.3,52.9-15.7,105.9-19.2,159.5
	c-4.4,66.9-16.4,133.8-14.2,200.4c3.2,97.6,1.3,194.6-7.7,291.6c-0.7,7.2-1.7,15.5,1,21.7c17.6,40.5,18,83.1,14.1,125.5
	c-6.8,75.8,15.9,147.5,26.9,220.8c7.1,47.1,10.3,94.4-1.7,141.3c-15.2,59.7-53.9,91.6-115.3,95.2c-25.2,1.4-65.8-31.8-81.4-62.9
	c-37.4-74.5-41.2-153.8-36.3-234.6c1.4-22.9,1.2-45.8,2.1-68.7c0.5-13.1-1.9-21.3-17.7-14.6c-6,2.5-12.4,4.5-19.1,2.3
	c-5.7-1.9-11.5-4.8-12.5-10.7c-1.2-7.2,6.2-8.7,11.1-11c42.4-19.9,38.4-19.7,36.1-66.3c-1.2-22.7,2.6-48.1,8.2-71.6
	c2-8.4,3.6-16-0.3-23.7c-29.1-57.2-31.5-119.4-33.8-181.6c-5.6-152.9-14.2-305.7-12.2-458.8c0.3-20.2,0.8-39.3,13.4-58.2
	c12.9-19.3,4.2-43.7-0.8-64.6c-2.7-11.2-13.7,0.2-18.6,4.5c-31.2,27-65.5,48.5-103.9,63.9c-30.8,12.3-36.2,9.8-42.1-22.8
	c-20.2-111.1-19.1-223-14-335.1c10.5-230.1,37.9-458,92.2-682.1c8.2-33.9,7.7-68.2,9-102.4c2.8-74.5,10-148.5,16.7-222.7
	c7.4-81.5-8.4-161.4-17.4-241.8c-8.7-77.2-18.8-154.2-28.6-231.3c-1-8-2.1-16.8-6-23.5c-34.3-57.4-61.4-119.4-107.3-169.5
	c-47.6-52-82.8-111-105-178.1c-16.2-48.9-36.8-96.1-60.3-142c-14.1-27.6-32.1-50.2-61.5-63.9c-26.8-12.5-50.6-30.2-67.5-55.5
	c-22.2-33.5-18.2-62,12.9-86.9c9.9-7.9,15.3-16.6,11.9-29.5c-6.5-24.7-1.1-47.1,13.9-67.2c12.2-16.4,9.4-31.9,3.1-50.5
	c-16.9-50.1-27-102.3-46.1-151.9c-4.5-11.6,2-18,13.8-20.7c24.7-5.7,49-13.3,73.8-17.8c13.6-2.4,20.4-8.2,22.7-21.2
	c1.1-6.4,4.8-12.6,4.8-18.9c0.4-46.9,13.9-91.2,25.9-135.9c4.1-15.3-1.2-30.8-6.3-45.6c-5.6-16.2-9.1-33.5-17.1-48.5
	c-25.8-48.2-13.5-94.6,3.8-141.1c1.4-3.7,3.2-9.1,6.1-10.2c20.6-8.1,19.1-26.1,19.9-42.9c0.7-15.7-1.4-32.6,22.3-32.9
	c4.3-0.1,6.4-4.1,7.3-8.6c5-25.8,25.6-31.3,47-35.7c-3.3,10.8-3.3,25.8-12.8,30.9c-26.9,14.3-10.4,21.9,2.2,32.6
	c8.7,7.4,26.4,12.2,21.8,25.7c-4.5,13.3-20.1,3.4-30.8,4.4c-13,1.2-27.9,3.6-33.4,16.1c-5.2,12,8.5,17.4,16.4,24
	c6.7,5.5,10.5,13.3,1.2,17.4c-18.6,8.4-28,29.4-48.9,34c-22.4,5-21.8,21.4-13.8,35.8c16.3,29.2,47.2,33,76.3,36.1
	c21.6,2.3,40.7-11.1,47.2-29c16.5-45.3,51.6-87.6,27.2-141.8c-5-11-8.2-29.1,5.3-38.5c14.7-10.3,22.4,7.6,33.3,12.7
	c27.7,46.9,22.4,97.1,13.6,147.3c-6.6,37.8-25.6,72.8-34.5,108.6c-18.5,74.4-49.8,145.3-60.8,221.6c-2.5,17.5,3,27.5,22,30.6
	c59.7,9.8,118.3,26,178.9,30.2c13.5,0.9,20.7,4.7,20,20.6c-4.3,100.5-7.4,201.1-11.5,301.6c-1.5,36.1-11.1,71-18.7,106.1
	c-7.4,34.5,13,62.7,46.5,65.6c54.7,22.7,97.1,61.9,137.6,103.6c17,17.5,33.7,35.5,51.6,52.2c12.1,11.4,26.5,18.2,44.4,16.3
	c54.2-6,108.5-2.7,159.5,15.5c40.7,14.5,80.9,7.6,119.8,3.4c56.6-6.1,110.4-28.1,162.7-51.1c15.5-6.8,31.9-13.7,37.4-32.5
	c23.6,3.1,46.8,8,67.5,19.9c11,6.3,17.8,3.3,25.6-4.6c8.1-8.1,16.9-15.5,25.8-22.6c29.3-23.5,72.2-23.1,101.2,0.5
	c6.9,5.6,13.4,19.8,23.5,9.8c12.5-12.4,35.5-21.7,29.8-43.7c-5-19.2-0.6-35,4.8-52.3c5.1-16.3,9.4-33,12.1-49.9
	c6.7-41.6,27.1-76.7,49.9-110.8c11.3-17,22.8-33.9,33.6-51.2c7.2-11.6,9.3-23.4,3-37c-8.7-19-3.8-38.6,2.8-57.3
	c5.7-16.1,12.5-31.9,19-47.8c6.1-15,5.4-28.1-7-40.3c-11.5-11.4-17-26.6-15.8-42.5c1.4-18.7-5.8-18-19.8-12.8
	c-29.1,10.8-58.6,20.6-88.2,29.9c-27.5,8.7-28.8,7.4-23-20.1c27.1-129.6,54.5-259.1,81.4-388.7c4.8-23.2,10-46.6,11-70.1
	c1-21.3,11.8-32.1,28.4-41.6c76.7-43.8,156.5-81.3,236.7-118c33.4-15.3,67.2-29.8,101.2-43.6c25.2-10.2,29.2-6.8,24.1,20
	c-18.6,96.3-37.8,192.5-56.8,288.6c-5.4,27.4-5.5,27.9,20.9,20.7c68.5-18.7,138.3-33.2,202.8-64.2c30.5-14.7,41.2-36.7,34.8-69.9
	c-9.4-48.3-45.9-81.7-95.2-86.5c-4.2-0.4-8.3,1-8.3-5.1c0-5.4,4.3-6.4,8.3-7c22.6-3.2,41.8,4.9,59.1,18.4
	c23.8,18.7,37.2,41.3,51.7,86.7c17.8-34.1,16.7-72.6-2.7-102.7c-18.4-28.4-45-38.9-90.1-35.6c32.4-36.3,93.2-1,116.6,67.9
	c8-21.2,7.8-48.8,0.9-89.2c-1-5.6-9.4-15.8,3.2-17.7c8.6-1.3,7.5,9.4,8.7,14.9c13.5,58.9,3.2,115.2-19.9,169.9
	c-2.4,4.2-9.6,7.6-2.2,13.2c-1.6-0.6-3.2-1.2-4.7-1.8c-0.1,0.7-0.2,1.4-0.3,2.1c1.5-0.4,3.1-0.7,4.6-1.1
	C6303.4,569.7,6305.7,567.4,6308.1,565.1z M6448.9,562.4c4.9-1.9,14.1-3.2,9.2-9.9c-4.4-6.1-8.8,3-13,5.8c-2.1,2.1-4.3,4.1-6.4,6.2
	C6442.7,566.6,6446.3,566.7,6448.9,562.4z M6444.7,592.7c1.2,0.8,2.5,2.5,3.7,2.4c3.1-0.2,9.8,2,8-3.2
	C6454.8,587,6448.7,590.9,6444.7,592.7z"/>
<path class="st0" d="M4011.4,480.9c36.7,0.2,37.1,0.1,44.5,38.4c1.7,8.9,7.5,6.8,12.4,8.1c18.6,5.1,23.4,17.1,14.8,33.4
	c-10,18.9-13.4,37.7-7.7,58.8c3.2,12.1,6.6,25-8.4,34.6c-5.9,3.7-3.3,13.6-1.8,21c3.2,15.7,2.1,31.6-5.5,45.5
	c-67.1,122.9-107.4,257.8-171.3,382.2c-23.5,45.8-55.1,88.7-70.7,136.8c-13.4,41.2-34.9,82-36.1,125.9c-1,38.9,12.3,74.4,50.9,95.8
	c64,35.5,65.4,50.3,14.1,102.9c-5.7,5.9-12.3,11.2-16.8,17.9c-22.4,33.5-52.1,42.8-89.3,28.1c-13.5-5.3-22-0.6-27.6,11.6
	c-5.1,11.1-10.7,22.1-14.9,33.6c-8.1,22.3-4,42.1,15.6,56.9c26,19.7,30.5,45.3,20.1,74.4c-24.1,67.4-55,131-105,183.7
	c-20.4,21.5-26.7,48.4-29.1,76.4c-4.1,48.9-8.9,97.5-19,145.8c-11.2,54,0.9,107.6,9.9,160.8c15.6,91.1,34.8,182.1,39.1,274.3
	c5.9,126.3,40.5,248.1,50.1,373.8c14.3,187.2,17.1,374.3,9.2,561.7c-3.6,86.7-8.7,173.2-20.2,259.3c-7.3,54.8-30,67.1-80.9,43.7
	c-0.8,0.9-2.4,1.9-2.5,3c-7.8,52.6-32.2,65.4-96.7,50.8c-35.5-8-35.9-8.1-40.2,26.6c-11.7,95-33.3,188.5-42.4,283.8
	c-1,10.1-0.9,19.5,2.5,28.7c9.3,24.9,2.5,44.7-18.6,60.3c-5.9,4.3-12.1,8.2-12.7,16.9c-2.2,29.6-19.7,51.2-37.9,72.5
	c-16.7,19.6-28.7,40.4-13.1,66.6c1.9,3.2,2.9,8.4,1.6,11.6c-11.9,30.8-4.2,61.3,0,92c7.8,56.2,1.8,109.4-35.1,155.6
	c-21.3,26.6-47.4,43.5-82.8,36.1c-33.9-7.1-55.7-28.9-67.7-61.2c-18-48.4-19-96,6.2-142.2c13.4-24.7,18.3-50.5,13.9-78.2
	c-7.1-44.8-5-91.4-28.1-133.2c-6.2-11.3-1.6-25.8-2.5-38.8c-2.7-39.9,18.6-73.8,26.3-111.1c1.1-5.2,4.7-11.3,9.1-14.2
	c32.9-22.5,33-56.2,31.4-90.2c-3.2-67.1-4.3-134.2,6.9-200.8c2.6-15.2,6.5-30.3,10.8-45.2c6.2-21.8,15.9-42.8-6.5-62.6
	c-8.1-7.2-7.9-21.1-8.5-32.6c-0.8-13.9-3.5-27.3-9.3-40.2c-10.6,2.5-13,10.2-15.4,17.9c-6.8,21.8-13.5,43.7-20.2,65.6
	c-3.7,12-1.9,22.2,3.3,34.7c9.8,23.6-1.5,49.8,3.8,75c-11.9,0.9-18.1-5-24.6-11.3c-7.5-7.2-16-16.7-26.8-13
	c-13,4.4-20.1,15.8-21.6,30.2c-4.8,44.7-10.8,89.3-14.9,134.1c-5.1,54.6-9.1,109.2-7.7,164.2c0.6,22.5,5.5,43.1,14.9,63.8
	c12.6,27.9,28.8,57.2-1.9,85.2c-3.1,2.8-2.3,10.9-1.8,16.4c2.2,26.5-4.6,50.6-20.1,71.7c-19,25.9-22.9,54.5-22,85.8
	c1.7,55.7,9.1,110.9,13.1,166.3c1.8,25,9.4,54.5-17.9,68.7c-32.3,16.7-69.8,19.8-100.9-1.6c-69.9-48.2-97.9-131.4-76.5-196.8
	c11.7-35.6,18.8-72.7,23.8-110.1c3.4-25-1.8-47.5-17.3-66.9c-22.6-28.2-28.2-56.6-5.5-87.2c6.2-8.4,5.1-16.6,0.2-25.1
	c-9.8-17-11.4-35.6-9.6-54.7c9.7-99.6,4.9-199.5,5.2-299.3c0.1-17.3-2-33.9-14.8-47.9c-7.3-8-8-19.3-8.7-30.1
	c-11.1-180.5-36.4-359.6-57.6-538.9c-20.6-175-18.2-347.3,10.5-520.4c26.3-159,52.6-318.2,41.9-480.5c-3.6-55.5-7.5-110.9-22.4-165
	c-6.4-23.2-17.7-42.2-37.9-55.1c-61-39-84.3-97.2-86.2-166.8c-1-37.6-3.4-75.2-4.2-112.8c-0.5-21.9-4.2-41.8-18.6-59.5
	c-26.3-32.2-20.4-71-20.1-108.3c0.3-41.8-1.7-45.7-39.7-58.7c-36.7-12.6-54.7-45.4-78.3-72c-6.1-6.9-0.1-14.9,5.3-21.8
	c33.9-44,74-80.4,123.4-106.6c35.6-19,36.4-23,19.9-58.7c-45.5-98.7-96.6-195.7-124.1-301c-25.2-96.1-73.7-179-124.7-261.8
	c-9.3-15.1-15.6-30.2-12.1-48.6c3.9-20.6-3.7-34.1-26.4-34.2c-14.3-0.1-22.1-8.1-29.1-18.9c-20.4-31.9-37.2-65.3-45.9-102.4
	c-20-85.7-52.7-166.5-92.7-244.6c-15.3-29.9-13.6-33,19.2-34.7c134-6.8,268.1-12.8,402.1-19.9c25.9-1.4,41.9,7.5,54.9,30.7
	c66.3,117.4,134.3,233.9,201.5,350.8c15.5,26.9,13.3,31.1-18,34.8c-78.8,9.3-157.6,18.3-236.4,27.4c-3.3,0.4-6.5,0.7-9.7,1.3
	c-54,9.5-53.2,13.4-45.3,67.3c18.5,126,85.3,232,137,344.3c20.2,43.8,43.1,86.2,57.4,132.5c3.2,10.4,5.1,22.7,22,20.7
	c7-0.8,9,7.8,11.8,13.8c14.3,30.6,24.4,37.9,56.9,34.5c19.6-2,26.8,6.1,29.6,23.2c7.2,43.9,20.1,85.7,44,123.9
	c15,23.9,10,51,7.3,76.7c-2.6,25.3,4.9,44.7,27.5,62c4.9-33.3,9.2-65,14.3-96.5c11.1-68.5,32-133.4,72.4-190.9
	c61.1-87,182.8-104.6,266.1-38.3c10.4,8.3,19.6,17.8,24.6,30.1c23.4,57.4,49.4,114.1,54.3,177.2c0.5,6.4,2.5,12.8,4.1,19.1
	c0.5,2,2.1,3.7,3.3,5.8c12.3-4.7,14.1-15.8,17.7-25.4c18-48.2,36.5-96.3,53.4-144.9c8.5-24.6,22.4-35.8,49.2-31.5
	c20.9,3.3,42.4,3.2,63.6,5c16,1.4,27.3-5.3,33.1-19.8c47.3-118.1,120.7-221.9,180.7-333.1c33.3-61.8,62.8-125.7,94.2-188.5
	c14.2-28.4,15.9-55.7,5.8-87.1c-20.6-64.4-23.2-131.6-21.5-198.9c39.4,15,39.4,15,40.9,59.5c0.2,4.9,0.3,9.8,1,14.7
	c3.6,23.7,44.7,72.1,62.4,74c21.3,2.2,53.6-21.6,66.8-47.4c5.8-11.4,5.9-17.8-7.8-21.4c-17.3-4.5-21.3-14.6-13.1-30.9
	c3.1-6.3,9.6-20.5-0.4-20.6C4005.2,518.5,4015.5,495.9,4011.4,480.9z M3107.4,1782.9c10.9,26.5,38.4,40.1,43.9,67.9
	c0.8,3.8,9,3,13.2,0.1c19.2-13.2,42.7-16.1,62.8-26.9c25.4-13.6,51.5-20.2,80.2-11.9c15.1,4.4,25.8-1.8,35.2-14.8
	c26.9-37,47-76.6,52.2-122.7c0.9-7.8,6.8-17-0.7-23c-8.2-6.6-16.9,0.7-25.1,3.6c-10.3,3.6-14.8,12.1-18.2,21.7
	c-6.3,17.7-12.7,35.4-19.3,53c-19.8,53-32.3,60.4-88.3,51.6c-13.7-2.2-27.4-2.6-35.2,10.4c-14,23.2-30.3,19.4-49.7,7.9
	C3143.5,1790.8,3128.2,1781.3,3107.4,1782.9z"/>
<path class="st0" d="M1365.5,1454.8c13.9-0.9,30.4,11.4,39.9,3c6.8-6.1,1.9-24.6,3.4-37.4c4.6-40.3,19.3-77.6,35.2-114.3
	c37.2-85.4,82.6-166.8,123.8-250.2c7.3-14.8,14.6-13.8,26.3-5.8c35.5,24.3,71.4,48,108.4,72.7c3.6-19.3-2.1-30.5-11.7-44.7
	c-14.7-21.8-21.2-49.1-30.8-74.2c-1.4-3.6-1.6-9,2.8-10.8c6.7-2.8,12.3,0.4,17.6,5.1c4.7,4,8.5,13.4,15.2,9.8
	c7.3-3.9,9-13.4,7.5-21.8c-7.8-44.6,1.2-92.1-23.3-133.9c-1.6-2.7-1.9-6.2-2.8-9.4c-11.3-39.8-11.2-39.6-53.2-26.8
	c-26.6,8.1-53.3,15.6-80,23.1c-19.3,5.4-28.4,0.6-27.9-22.2c1.9-79.5,15-157.9,22.4-236.8c5.7-61.1,6.9-122.4,7.1-183.8
	c0-12.7-3.2-16.6-16.6-16.3c-23.8,0.5-47.3,2.5-70.6,7.1c-37.9,7.5-58.3,32.9-53.2,71.6c5.7,43.7,18.8,83.8,69.5,95.7
	c3.1,0.7,7.2,1,6.4,5.2c-0.9,4.1-4.3,6.9-9.1,6.5c-18.2-1.3-32.7-10.4-44.6-23.3c-21.9-23.7-32.6-52.5-34.4-84.5
	c-0.4-7.7-0.1-15.4-0.1-27.7c-27.6,34.5-37.4,68.6-24.8,106.1c11.9,35.3,39.2,52.9,76.9,54.8c-16.1,11.7-22.3,12.5-40.6,3.1
	c-40.3-20.5-56.1-55.1-53.9-104.8c-17.5,32.8-23.7,62.4-25.7,93.3c-0.4,5.7,2.7,15.8-7.1,15c-9-0.8-5.7-10.4-5.4-16.3
	c3.6-61.9,29.1-114.8,68-161.9c2.1-1.4,6.5-2,3.9-5.8c-2.4-3.5-5,0.2-7.4,1.1c-25.3,9.3-40.7,28.3-53,51.4
	c-17.7,33.2-32.6,67.5-44,103.4c-1.8,5.7,0.2,18.8-10,15.7c-11.7-3.5-3.1-14-0.9-20.4c10.3-29.1,21.6-57.9,32.6-86.8
	c3.3-2.2,7-6.2,4.1-9c-4.4-4.1-5.2,3-7.9,4.7c-23.3,22.3-39.6,49.3-53.8,78c-2.4,4.8-1.5,16.2-10.8,12.3c-10.2-4.2-2.6-12.7,0-18.6
	c11.4-25.2,26.8-48.1,42.2-71.3c-29.9,15.2-42.3,45.6-63.8,69c1.3-34,29.3-53.5,46.4-78.9c6.8-5.5,15.7-9.3,17.4-21.6
	c-11,1.9-16.5,8-21.7,14.5c-19.4,13.8-33.2,32.8-47.1,51.7c-2.6,3.5-4.8,9.9-10.9,5.4c-5.3-3.9-2.6-8.4,0.7-12.4
	c12.8-15.6,25.6-31.2,38.3-46.9c1.8-1.9,5.5-3.6,2.2-6.5c-3.3-2.9-4.6,0.8-6.1,3c-19.1,8.6-34,21.4-39.9,45.6
	c-14.7-21.8-0.4-32.5,10.8-41.3c34.7-27.2,71.4-51.4,112.6-68c5.1-2,10.1-4.2,14.4-8.2c-55.9,0.7-103.8,23.1-148.5,55.9
	c0.6-20,9.3-26.7,71.3-55.4c-27.9-3.8-47.5,12.3-70.7,20.8c-3.9-19.4,16.1-16.6,22.6-25.5c3.5-1.1,8.1,0,10-4.6
	c-4.4-1.4-8.7-2.3-12.2,2c-5.2-4.4-16,8.5-17.4-4.4c-0.9-8.2,8.5-8.4,14.8-9.4c17.6-2.7,35.2-5.2,58.6-8.6
	c-21-8.2-37.2-3.8-53.1-4.2c-4.8-0.1-13.3,4.6-14-4.1c-0.8-9.8,8.3-7.8,14.5-7.9c13.7-0.2,27.4-0.1,46.6-0.1
	c-18.6-12.1-38.3-12.5-49.2-26.7c5.2-8.6,24.7,8,20.8-14.3c-0.5-3,10-0.7,15.5,0.8c37.1,10.3,74.4,21.8,107.1,41.6
	c50.2,30.4,103.1,37.8,160,32.9c39.9-3.4,42.8-2,40.1-40.5c-2.5-35.6,12-51.2,44-63.9c81.1-32.2,163.7-61.4,241.6-101.4
	c6.5-3.3,13.5-6.1,20.5-8c24.3-6.6,31.5-0.5,30,24.5c-9.6,154.3-31.5,307.7-38.2,462.2c-2.4,54.8-4.3,109.5-5.9,164.3
	c-0.9,30.8-0.6,60.6-11,91.4c-12.6,37.3-8.1,77.1,19.3,108.9c34.2,39.6,40.7,88.1,47.9,136.6c1.5,10-1.5,18.5-8.2,27
	c-22.9,29-15.6,80.4,14.2,102.8c18.9,14.2,38.5,27.7,58.3,40.7c15.1,9.8,19.3,19.9,8.2,36.2c-67.4,99.5-133.9,199.6-201.6,298.9
	c-31.6,46.3-71.1,85.4-116.8,118.2c-16.4,11.8-29.3,25.6-34,46.2c-2.8,12-8.3,22.2-22.2,26.8c-13.6,4.6-21.1,17.6-29.7,28.5
	c-20.5,26.1-46.7,39.7-80.7,38.7c-14.8-0.4-34.2-10.4-43.5,5.2c-10.7,18.1-12.6,41.1-5.5,61.7c30.4,87.7,44.9,179,64.8,269.2
	c24.1,109.2,35.4,221.5,74.7,327.1c19.3,51.8,24.2,104.8,20,159.3c-2.8,37.5-3.9,75.2-7.2,112.7c-9.8,110.8-13.6,222.1-28.6,332.5
	c-5.9,43.4-15.6,85.4-52.3,115.3c-10.5,8.6-13,22.4-16.1,35.1c-13.4,54-35.5,103.8-74.8,144c-14.8,15.1-5.4,24.3,4,35
	c27,30.4,26.8,29.9-11.7,44.2c-19,7-44,7.9-54.8,24.7c-11.5,17.9,10.6,34.8,14.9,53.3c13.4,57.7,13.3,115.3-0.3,172.5
	c-9.9,41.6-38.7,65.3-80.4,72.8c-42.7,7.7-72.7-12.5-95-46.4c-24.6-37.4-33.7-79.1-33.5-123.5c0.3-60.5,1.9-121.2-26.6-177.7
	c-6.4-12.8-13.8-20.9-27.2-19.3c-13.8,1.6-10.1,15.6-11,23.9c-10.6,93.9-35,186-26.3,282.3c8.5,94.4,13.6,189.2,21.4,283.8
	c5.2,63.5,3.3,127.5,4.1,191.3c0.3,24.1,5.2,44.8,20.9,65.4c27.6,36.4,35.1,80.8,20.2,123.6c-12.2,34.9-7.3,65,5.5,97.1
	c16.1,40.5,28.5,81.8,21.7,126.5c-5.7,37.4-19.4,72.1-44.2,99.6c-28.5,31.6-67.7,39.8-109.5,35.4c-5.9-0.6-7.4-5.2-10.8-8.6
	c-45.3-46-58.5-103.5-63.3-165.4c-7-90.1-2.9-179.9,1.5-269.8c1.1-22.4-1.6-42.6-12.2-63.4c-25-48.9-28.6-103.6-37-156.8
	c-18.4-115.5-36.3-231-54.1-346.6c-3.4-22-6.2-42.9-37.6-34.9c-9.6,2.4-16.7-3.3-16-13.4c8.4-115.3-57-205.9-103.5-302
	c-33.7-69.7-44.7-143.3-53.4-217.8c-23.5-201-32-402.8-29.5-605.1c1.6-129.1,19.1-256,50.8-380.9c11.1-43.8,12.6-86.4,3.6-130.8
	c-12.5-62.5-20.7-125.9-31.5-188.7c-5-29.2-15.4-50.4-46.9-67c-41.9-22.1-77.5-59-99.9-102.2c-63.6-122.7-150.4-231.8-207.9-358
	c-8.9-19.5-20.9-36.2-40-48.2c-18.9-12-20.5-29.3-8.5-48.8c22-35.6,21.6-36.5-6-67.4c-13.9-15.5-21.3-34.7-31.2-52.6
	c-5.9-10.6-1.9-19.4,8.9-23.9c20.4-8.5,20.7-22.2,16.3-41.8c-14.9-66.3-33.7-131.2-59.9-194.1c-23.5-56.4-24.1-116.6-21.8-176.5
	c2.4-62.2-10.1-119.9-42.7-173.5c-19.1-31.4-36.3-63.9-45.3-100c11.2,10.6,21.9,21.8,33.9,31.5c10.6,8.5,23.3,13.5,36,3.9
	c28.6-21.6,58.9-41.7,75.4-75.6c5.8-11.8,13.7-22,27.4-26.5c18.3-5.9,22.7-18.3,10.9-33.9c-7.3-9.6-17.5-17-26.4-25.4
	c-16.8-15.9-28.7-33.6-23.1-58.4c40.2,15.8,91.4,16.3,102.1,73.2c-0.8,36.9-3.4,74.5-16.3,108.6c-23,61-14.7,120.2-0.8,180.5
	c33.3,143.7,89.3,279.4,144.2,415.6c5.1,12.7,12.7,14.9,24.6,13.8c26.8-2.3,53.7-4.9,80.6-5.2c33.2-0.4,42.7,8.5,49.5,41.5
	c2.5,12,7.5,24.3,6.4,36c-3.3,35,13.8,58.5,38.8,79.1c9.4,7.8,16.8,17.9,26.3,25.7c26.4,21.8,40.9,48.4,44.9,83.3
	c4.6,40,55,90.1,92.4,97.9c20.4,33.4,42.7,65.8,60.9,100.4c24.8,47.3,59.4,86,98.8,120.6c33.8,29.6,69.5,57,103.2,86.7
	c15.6,13.7,28.2,12.4,43,0.2c76.6-63.8,154.5-126.1,229.6-191.6C1326.8,1545.2,1355.8,1505.3,1365.5,1454.8z M1244,443.2
	c-0.5,0.5-1.6,1.1-1.5,1.4c0.2,1.1,0.9,2,1.3,3c0.5-0.5,1.6-1.1,1.5-1.4C1245.1,445.2,1244.5,444.2,1244,443.2z M1335.9,377.1
	l1.5,0.7l0.2-1.1L1335.9,377.1z"/>
<path class="st0" d="M830.9,1387.5c5.8-6,20.2-4.8,17.7-16.9c-2.2-10.6-11.7-14.1-22.9-13.8c-9.6,0.2-15-7.1-15.7-15.9
	c-2-25.1-9.6-49.5-6.4-75.4c3.9-30.9,1-61.9-1.4-92.9c-1.9-24.4-3.4-49-2.5-73.4c1.8-49.4,22.8-87.6,68.6-110.3
	c16.8-8.3,33.2-17.4,49.5-26.5c11-6.1,22.6-10.6,35-9.7c47.4,3.2,94.6,9.6,137.1,32.2c46.4,24.7,69.7,67.6,82,116.7
	c5.4,21.3,8,43.3,11,65.1c3.2,23.4,6.7,45.9,18.3,67.8c15.8,29.6,6.8,62.2,1.9,93.5c-1,6.2-6.1,9-12.5,9.8c-8.6,1-19.7-1.2-23,9.8
	c-5,17.1-9.1,34.6-11.9,52.2c-1,6.2,5.9,8.9,12.3,9.2c11.4,0.5,22.8,1.2,34.3,1.9c6.9,29.2,7.1,57.3-16.7,79.6
	c-45.3,42.4-91.9,83.4-140,122.6c-9.4,7.7-16.5,8.5-27.9,2c-43.7-24.6-78.5-56.6-103.6-101C889.5,1470,865,1425.5,830.9,1387.5z"/>
<path class="st0" d="M4779.5,1441.5c25.4-6.1,50.7-11.7,77.2-7.5c11.6,1.8,15.7-4.8,15.5-16.1c-0.3-14.9-2.9-29.3-7.4-43.3
	c-5.2-16.3-13.2-29-33.5-20.4c-11.1,4.6-15.1-2.4-17.6-10.7c-4.6-15.2-6.5-31.8-1-46c19.9-51.3,13.1-106.3,24.5-158.5
	c7.8-35.7,22.6-72.6,48.9-96c29-25.8,66.4-46.2,107.6-48.5c66.3-3.7,156.9,55.8,181.8,118.4c16.3,41,28.4,83.5,30,128.2
	c0.7,19,6.6,36.9,11.7,54.9c4.3,14.9,8,29.8,4,45.7c-5.4,21.1-15.2,28-35,19c-12.1-5.5-16.2-1.6-19.9,8.3
	c-7,19.2-13.2,38.7-21.2,57.4c-7.6,17.7-2.5,27.7,15,33.9c12.3,4.4,24.1,9.9,36.2,14.9c-1.3,3.9-2.8,7.7-3.7,11.7
	c-10.2,44.9-22.5,56.2-67.5,63.5c-17.7,2.8-35.2,6.8-52.7,10.8c-45.3,10.4-90.5,21.7-135.9,31.4c-23.8,5.1-45.1,0.2-60.8-21.3
	C4843.9,1527.8,4811.6,1484.8,4779.5,1441.5z"/>
<path class="st1" d="M830.9,1387.5c34,38,58.6,82.6,83.3,126.5c25.1,44.4,59.9,76.5,103.6,101c11.4,6.4,18.5,5.7,27.9-2
	c48.1-39.2,94.7-80.2,140-122.6c23.8-22.3,23.6-50.4,16.7-79.6c1.2-3.3,3.2-6,6.9-5.2c53.5,11.9,108.7,18,156.1,49.2
	c-9.7,50.5-38.7,90.5-75.7,122.8c-75.1,65.5-153,127.8-229.6,191.6c-14.7,12.3-27.4,13.6-43-0.2c-33.7-29.7-69.5-57-103.2-86.7
	c-39.5-34.7-74-73.3-98.8-120.6c-18.2-34.6-40.4-67-60.9-100.4c13.3-26.6,34.5-46.9,54.5-67.9C814.2,1387.7,822,1383.4,830.9,1387.5
	z"/>
<path class="st1" d="M4011.4,480.9c4,14.9-6.2,37.6,24.4,37.7c10,0,3.5,14.3,0.4,20.6c-8.2,16.3-4.2,26.5,13.1,30.9
	c13.7,3.5,13.7,10,7.8,21.4c-13.2,25.8-45.5,49.6-66.8,47.4c-17.8-1.8-58.8-50.3-62.4-74c-0.7-4.8-0.9-9.8-1-14.7
	c-1.5-44.5-1.5-44.5-40.9-59.5c-62.7-130.2-123.9-261.2-188.6-390.4c-28.5-57,13.3-88.7,57.7-97.8c15.8-3.2,23.1,11.3,28.9,22.4
	c21,39.7,41.1,79.9,61,120.1C3900.7,256.9,3956,368.9,4011.4,480.9z"/>
<path class="st1" d="M8665.4,1480.2c7.8,26.9,22.4,50.8,34.8,75.6c13.1,26.2,21.2,53.1,13.5,82.7c-2.9,11.3,0.3,21,7.5,29.6
	c6.8,8.1,13.5,16.4,20.6,24.3c6.8,7.5,9.1,17.9,5.1,25c-4.8,8.5-14.9,2-22.2-0.2c-31.3-9.4-62.3-19.8-93.7-28.8
	c-33.9-9.7-63-26.6-87.3-52.2c-23.4-24.6-51.3-42.7-80.8-59.1c-77.9-43.3-155.2-87.4-232.9-131.1c-11.4-6.4-23.3-11.8-34.8-18.2
	c-42.5-23.7-87.4-30.5-135-20.5c-8.5,1.8-17.1,4.6-30.3,0.9c52.5-26,99.6-55.2,153.6-69.6c23.4-6.3,45.7-0.4,64.8,14.4
	c108.1,83.7,231,141.6,351.6,203.7c24.2,12.5,24.6,11.9,27.1-14.3c2.1-21.1-1.7-39.9-13.2-58.2c-17.2-27.4-32.6-56-48.8-84
	C8603.3,1420.9,8636.5,1447.9,8665.4,1480.2z"/>
<path class="st1" d="M4473.7,405.6c-11-5-18.6-23-33.3-12.7c-13.5,9.4-10.3,27.5-5.3,38.5c24.5,54.2-10.6,96.5-27.2,141.8
	c-6.5,17.9-25.5,31.3-47.2,29c-29.2-3.1-60-6.8-76.3-36.1c-8-14.4-8.6-30.8,13.8-35.8c20.9-4.7,30.2-25.7,48.9-34
	c9.3-4.2,5.5-11.9-1.2-17.4c-7.9-6.5-21.6-12-16.4-24c5.4-12.5,20.4-14.8,33.4-16.1c10.7-1,26.3,8.9,30.8-4.4
	c4.6-13.5-13.1-18.3-21.8-25.7c-12.6-10.7-29.1-18.2-2.2-32.6c9.5-5.1,9.4-20,12.8-30.9c50.1-102.7,100.4-205.3,150.2-308.1
	c16.7-34.4,39-45.4,67.1-31.4c29.2,14.5,41.9,51.3,28.1,80.4c-46.7,98-93.2,196-139.9,294C4483.6,389,4478.4,397.2,4473.7,405.6z"/>
<path class="st1" d="M9414.1,843.6c-2.9,16.1-8.4,32.1-8.1,48.2c0.4,31.9-24.7,58.8-16.2,92.3c2.3,8.9-6.6,14.5-15.8,14.8
	c-9.8,0.4-19.6,0.3-29.4-0.6c-33.7-2.8-29.8-3.5-32-36.4c-2.6-39.6,10.8-71.5,31.1-103c6.2-9.7,9.9-20.7,2.3-32.2
	c-6.2-9.5-13.1-1.5-19.7-1.4c18.6-126.2,37.2-252.4,55.8-378.5c2.1-14.6,4.4-29.1,6.8-43.6c4.8-28.9,56.3-50.2,80-32.5
	c14.2,10.6,10.2,26.6,8.1,41c-8.3,57.5-17.3,114.8-25.6,172.3C9438.8,670.4,9426.5,757,9414.1,843.6z"/>
<path class="st1" d="M263.6,384.4c-10.7-56.9-61.9-57.4-102.1-73.2l-1.7-1.4c1.1-2.4,2.2-4.8,3.4-7.2c37.6-23.3,70.1-53.3,104.3-81
	C329.3,171.8,389.7,120.3,451,69.8c17-14.1,34.9-27.1,54.9-36.9c21.6-10.7,39-6,53.3,13.8c31.7,43.9,28.4,70-13.7,104.7
	C451.4,229,357.6,306.7,263.6,384.4z"/>
<path class="st1" d="M4779.5,1441.5c32.1,43.2,64.4,86.3,96.1,129.8c15.6,21.5,37,26.4,60.8,21.3c45.5-9.7,90.6-21,135.9-31.4
	c17.5-4,35-8,52.7-10.8c45-7.2,57.3-18.5,67.5-63.5c0.9-4,2.4-7.8,3.7-11.7c6.5-3.7,13.3-7.3,20.8-3.7c37.5,18.1,77,32.3,111.1,56.8
	c5.7,4.1,9.3,11.1,13.9,16.8c-5.5,18.8-21.9,25.7-37.4,32.5c-52.4,23.1-106.2,45.1-162.7,51.1c-38.8,4.2-79.1,11.1-119.8-3.4
	c-51-18.2-105.3-21.4-159.5-15.5c-17.9,2-32.3-4.9-44.4-16.3c-17.8-16.7-34.5-34.7-51.6-52.2c-40.5-41.7-82.8-80.9-137.6-103.6
	c-1.6-3.8,0-6.8,3.7-6.9C4682.1,1430.6,4731.3,1429.6,4779.5,1441.5z"/>
<path class="st1" d="M161.5,311.2c-5.6,24.7,6.3,42.5,23.1,58.4c8.9,8.4,19.1,15.8,26.4,25.4c11.8,15.6,7.4,28.1-10.9,33.9
	c-13.7,4.4-21.6,14.6-27.4,26.5c-16.6,33.9-46.8,53.9-75.4,75.6c-12.7,9.6-25.4,4.6-36-3.9c-12-9.6-22.6-20.9-33.9-31.5
	c-7.4-15-15.1-29.9-22.2-45.1c-5.7-12.1-9.3-24.4,3.2-35.1c32.9,13.1,74.3-10.1,75-44.1c0.5-22.3,8.9-24.2,27.2-18.4
	c17.2,5.5,30.4,0.6,34-19.7c1.7-9.7,5.3-18.8,15.2-23.5L161.5,311.2z"/>
<path class="st0" d="M159.8,309.7c-9.9,4.7-13.5,13.8-15.2,23.5c-3.6,20.3-16.8,25.1-34,19.7c-18.3-5.8-26.7-3.9-27.2,18.4
	c-0.7,33.9-42.1,57.2-75,44.1c-2.5-11.7,6.2-16.1,14-20.2c7.8-4.1,13.7-8.9,14.8-18c1.4-11.9,8.7-15.2,19.1-12.8
	c14,3.3,23,2.4,17.6-15.9c-1-3.5-0.3-8.4,1.4-11.7c7.9-15.6,70-39.5,87.8-34.2C162.1,304.9,160.9,307.3,159.8,309.7z"/>
<path class="st0" d="M6403,1494.9c-2.8-11-18.5,7.4-18.8-8.1c-0.4-17.8,15.8-19,26.8-25.3c1.2,1.5,2.3,3,3.5,4.5
	c-5.5,7.5-17,13.2-7.9,25.3C6405.3,1492.5,6404.1,1493.7,6403,1494.9z"/>
<path class="st1" d="M8565.3,1400.6c-6.6-0.5-7.7-5.7-9.3-10.6C8560.6,1392.3,8566.9,1393,8565.3,1400.6z"/>
<path class="st0" d="M6410.9,1461.5c2.1-0.9,4.2-1.7,6.3-2.6c1.3,1.4,2.5,2.8,3.8,4.2c-2.2,0.9-4.4,1.9-6.6,2.8
	C6413.3,1464.4,6412.1,1463,6410.9,1461.5z"/>
<path class="st2" d="M6602,1561.4c-49.2-20.3-95.4-45.1-137.6-77.1c-6-4.5-12.5-10.7-9.3-17.9c3.1-7,12.1-4.6,17.3-1.5
	C6518.7,1492.8,6569.2,1515.1,6602,1561.4z"/>
<path class="st2" d="M6414.4,1465.9c2.2-0.9,4.4-1.9,6.6-2.8c13.3-3.7,14.6,6.3,16.7,14.9c1.6,6.5,1.2,12.9-4.8,17.6
	c-10.4,8.1-18-0.6-26.4-4.4C6397.5,1479.2,6408.9,1473.5,6414.4,1465.9z"/>
<path class="st2" d="M6560,1315.5c-9.2-9-15.2-16.9-11.5-28.4c1.1-3.4,4.6-5.1,7.4-2C6563.6,1293.5,6565.9,1302.9,6560,1315.5z"/>
<path class="st2" d="M6445.1,558.3c4.2-2.8,8.6-11.9,13-5.8c4.9,6.7-4.3,8-9.2,9.9C6447.6,561,6446.4,559.7,6445.1,558.3z"/>
<path class="st2" d="M6444.7,592.6c4-1.7,10.1-5.6,11.7-0.8c1.8,5.3-4.9,3.1-8,3.2C6447.2,595.1,6446,593.5,6444.7,592.6z"/>
<path class="st2" d="M6498.1,552.6c-3.9,5.8-12.4,5.1-13.5,2.2c-2-5.1,6.6-3.2,9.1-6.6C6495.1,549.7,6496.6,551.2,6498.1,552.6z"/>
<path class="st2" d="M6429.4,504.7c-2.9,0.5-5.8,1-8.7,1.5c0.3-1.3,0.1-3.4,0.9-3.8c3.5-1.9,7.3-3.7,7.9,3
	C6429.5,505.5,6429.4,504.7,6429.4,504.7z"/>
<path class="st2" d="M6448.9,562.4c-2.7,4.4-6.2,4.2-10.2,2.1c2.1-2.1,4.3-4.1,6.4-6.2C6446.4,559.7,6447.6,561,6448.9,562.4z"/>
<path class="st2" d="M6301.4,572.8c-7.4-5.7-0.2-9.1,2.1-13.3c1.5,1.9,3,3.7,4.5,5.6c-2.3,2.3-4.7,4.6-7,6.9L6301.4,572.8z"/>
<path class="st2" d="M6301,572c-1.5,0.4-3.1,0.7-4.6,1.1c0.1-0.7,0.2-1.4,0.3-2.1c1.6,0.6,3.1,1.1,4.7,1.8
	C6301.4,572.8,6301,572,6301,572z"/>
<path class="st1" d="M3107.4,1782.9c20.8-1.6,36.2,8,51.1,16.9c19.4,11.5,35.7,15.3,49.7-7.9c7.8-13,21.5-12.6,35.2-10.4
	c56,8.8,68.5,1.4,88.3-51.6c6.6-17.6,13-35.3,19.3-53c3.4-9.6,8-18,18.2-21.7c8.2-2.9,16.9-10.2,25.1-3.6c7.5,6.1,1.6,15.2,0.7,23
	c-5.2,46.1-25.3,85.6-52.2,122.7c-9.4,13-20.1,19.2-35.2,14.8c-28.8-8.3-54.9-1.7-80.2,11.9c-20.1,10.8-43.7,13.7-62.8,26.9
	c-4.2,2.9-12.4,3.7-13.2-0.1C3145.7,1822.9,3118.2,1809.4,3107.4,1782.9z"/>
<path class="st2" d="M1253.5,457.7c5.2-6.5,10.8-12.6,21.7-14.5c-1.7,12.3-10.6,16.1-17.4,21.6
	C1256.4,462.4,1255,460.1,1253.5,457.7z"/>
<path class="st2" d="M1201.1,373.3c3.5-4.3,7.8-3.4,12.2-2c-1.9,4.6-6.5,3.5-10,4.6C1202.6,375,1201.9,374.2,1201.1,373.3z"/>
<path class="st2" d="M1297.5,474.2c2.7-1.8,3.5-8.8,7.9-4.7c2.9,2.7-0.7,6.7-4.1,9C1300,477.1,1298.8,475.6,1297.5,474.2z"/>
<path class="st2" d="M1230.6,452.1c1.5-2.2,2.8-5.9,6.1-3c3.3,2.9-0.4,4.7-2.2,6.5C1233.2,454.4,1231.9,453.2,1230.6,452.1z"/>
<path class="st2" d="M1244,443.2c0.5,1,1.1,2,1.3,3.1c0.1,0.4-1,0.9-1.5,1.4c-0.5-1-1.1-2-1.3-3
	C1242.4,444.3,1243.4,443.7,1244,443.2z"/>
<path class="st2" d="M1376.7,415.2c2.4-0.9,5-4.6,7.4-1.1c2.6,3.8-1.7,4.4-3.9,5.8C1379,418.3,1377.8,416.7,1376.7,415.2z"/>
<polygon class="st2" points="1335.9,377.1 1337.5,376.8 1337.4,377.9 "/>
</svg>
