<?xml version="1.0" encoding="utf-8"?>
<!-- Generator: Adobe Illustrator 24.2.3, SVG Export Plug-In . SVG Version: 6.00 Build 0)  -->
<svg version="1.1" id="Layer_1" xmlns="http://www.w3.org/2000/svg" xmlns:xlink="http://www.w3.org/1999/xlink" x="0px" y="0px"
	 viewBox="0 0 155.3 153.9" style="enable-background:new 0 0 155.3 153.9;" xml:space="preserve">
<style type="text/css">
	.st0{fill:#b3b2b2}
</style>
<g>
	<path class="st0" d="M92.8,85c1,0.7,1.6,1.4,2.3,1.6c10.2,3.3,13.7,13.5,12.2,22.4c-1.7,10.7-8,17.3-18.8,18
		c-10.1,0.7-20.3,0.2-30.4,0.2c-0.3,0-0.7-0.5-1.9-1.4c10-1.1,8.4-8.1,8.4-14.2c0.1-16.8,0.1-33.6,0-50.4c0-2.9,0.6-6-1.8-8.5
		c-2.5-2.5-5.6-2.9-8.6-2c-3.2,0.9-3.9,4-4,6.9C50,65.5,50.1,73.4,50,81.2c-0.1,10.3,0.5,20.6-0.9,30.9c-1.1,8.3-6.3,14.9-12.9,16.6
		c-7.2,1.8-13.3-1-16.9-7.5c-3.4-6.2-3.7-13.1-3.7-19.9c-0.2-13.5,0-27-0.1-40.5c0-4.7,1-9.9-5.5-11.9c7.7,0,15.4,0,23,0
		c-7,1.7-6.6,7.2-6.5,12.2c0.2,17.1-0.8,34.3,0.7,51.4c0.6,6.4,3.7,9.8,9.1,10.2c4.6,0.3,6.6-2.7,8.1-6c2.4-5.2,2.9-10.9,2.9-16.6
		c0.1-12.5,0.1-25,0.1-37.5c0-5.4,0.4-11.1-6.9-13c1.8-1.9,3.5-1.1,5-1.2c12-0.1,24,0,36,0c19.9,0,39.8,0.1,59.6-0.1
		c3.7,0,5,0.8,4.7,4.6c-0.4,5.4-0.1,10.8-0.6,16.3c-2.1-3.9-2.7-8.2-4.6-12.1c-2.3-4.8-6.1-3.1-9.3-2.8c-3.3,0.3-1.7,3.5-1.7,5.3
		c-0.1,18.5,0,37-0.1,55.4c0,5.3,0.4,9.9,6.6,11.8c-8.4,0-16.8,0-25.1,0c7.5-2.2,6.8-8.3,6.8-14c0-17.6,0.1-35.3-0.1-52.9
		c0-2.1,1.4-5.8-1-6.1c-2.7-0.4-6.1-0.6-8.8,1.2c-2.8,1.9-4.5,3.9-3.3,8.2C107.3,73.2,102.7,81.4,92.8,85z M77.4,104.1
		c0,4.2-0.1,8.3,0,12.5c0.1,2.3-0.2,5.1,2.5,5.9c2.9,0.9,5.7,0.4,8.1-2.2c5.6-6,6.8-16.9,3.2-24.5c-2.2-4.6-5.6-6.7-10.3-7.2
		c-2.4-0.3-3.7,0.2-3.6,3.1C77.6,95.7,77.4,99.9,77.4,104.1z M77.4,68.3c0,3.8,0.3,7.7-0.1,11.5c-0.4,4.1,1.7,4.4,4.7,3.7
		c1.3-0.3,2.6-0.7,3.7-1.4c7.7-4.8,7.8-23-0.1-27.5c-2.2-1.2-5.3-1.8-7.7-0.8c-1.5,0.6-0.4,3.3-0.5,5.1C77.3,62,77.4,65.2,77.4,68.3
		z"/>
	<path class="st0" d="M77.6,43.5c-21.6,0-43.2-0.2-64.9,0.1c-4.6,0.1-4.6-2-4.5-5.3c0.1-3.1-0.4-5.5,4.4-5.5
		C56,33,99.4,33,142.9,32.8c5.1,0,4.1,2.7,4.2,5.6c0.1,2.9,0.6,5.3-4.1,5.2C121.2,43.3,99.4,43.5,77.6,43.5z"/>
	<path class="st0" d="M77.8,27.6c-24.1,0-48.3,0-72.4,0c-1.5,0-3,0.4-4.4-0.5c-0.9-0.7-1.2-1.7-0.9-2.7c0.4-1.6,1.9-1.6,3.1-2
		c16.2-5.2,32.5-10.4,48.7-15.7c3-1,6.2-1.6,9-3c11.3-5.4,22.2-4.5,33.8-0.2c18.5,6.9,37.4,12.3,56.2,18.5c1.8,0.6,4.9,0.4,4.3,3.7
		c-0.6,3-3.2,1.8-5,1.8C126.1,27.7,101.9,27.6,77.8,27.6z M20.2,21.9c0,0.3,0,0.6,0,0.9c38.1,0,76.2,0,114.3,0
		c-1.3-1.3-2.8-1.8-4.4-2.3c-15.2-4.9-30.3-9.8-45.5-14.7c-4.4-1.4-8.4-3.1-13.1,0.2c-1.4,1-4.4,1.4-6.7,2.1
		C50,12.5,35.1,17.2,20.2,21.9z"/>
	<path class="st0" d="M77.6,153.8c-22.3,0-44.6-0.1-66.9,0.1c-4.6,0.1-4.6-2.1-4.5-5.4c0.1-3-0.6-5.6,4.3-5.6
		c44.8,0.2,89.5,0.2,134.3,0c5.5,0,3.8,3.3,4.2,6.1c0.5,3.6-0.6,4.9-4.5,4.8C122.2,153.7,99.9,153.8,77.6,153.8z"/>
	<path class="st0" d="M77.6,132.6c19.5,0,39,0,58.5,0c1.9,0,4.4-1,4.5,2.7c0.1,4-2.4,3.1-4.6,3.1c-39,0-77.9,0-116.9,0
		c-1.7,0-4,1.1-4.2-2.4c-0.2-3.7,1.9-3.4,4.3-3.4C38.6,132.6,58.1,132.6,77.6,132.6z"/>
</g>
</svg>
